<?xml version="1.0" encoding="UTF-8" standalone="no"?><!DOCTYPE svg PUBLIC "-//W3C//DTD SVG 1.1//EN" "http://www.w3.org/Graphics/SVG/1.1/DTD/svg11.dtd"><svg width="100%" height="100%" viewBox="0 0 236 90" version="1.1" xmlns="http://www.w3.org/2000/svg" xmlns:xlink="http://www.w3.org/1999/xlink" xml:space="preserve" xmlns:serif="http://www.serif.com/" style="fill-rule:evenodd;clip-rule:evenodd;stroke-linejoin:round;stroke-miterlimit:2;"><g><path d="M48,44.9c-3,-12.2 -13.8,-15.6 -25.8,-15.6l-12.5,0l0,46.1l5.6,0l-0,-30.5l3.7,-0l0,-8.3l5.2,-0c5.5,-0 10.9,3 13.5,8.3l-12,-0l-0,30.5l2.5,-0c10.8,-0 21.2,-8 21.2,-22.1c0.1,-3.1 -0.4,-5.9 -1.4,-8.4" style="fill:#fff;fill-rule:nonzero;"/><path d="M91.4,44.9l-13.7,0l5.3,-15.5l-8.1,0l-6,15.5l-11.9,30.6l9.5,0l4,-10.6l18.7,0l4,10.6l10.2,0l-12,-30.6Z" style="fill:#fff;fill-rule:nonzero;"/><path d="M148.7,29.4l-0,28.3l-6.5,0l-14.4,-28.3l-11.3,-0l-0,46.1l8.8,0l-0,-30.6l2.1,0l15.7,30.6l11.3,0l0,-17.8l5.3,0l-0,-28.3l-11,-0" style="fill:#fff;fill-rule:nonzero;"/><path d="M184.4,42.3c0,-5 4.1,-6.4 7.3,-6.4c3.1,-0 6.2,0.7 9.1,1.9l0,-7.8c-3.1,-0.9 -6.4,-1.3 -9.9,-1.3c-8.1,-0 -17.1,3.8 -17.1,14.1c0,7.1 4.3,11 8.7,13.8c0.2,0.1 1.7,-2.3 1.9,-2.2c5.2,2.2 10.6,4.3 10.6,8.8c0,4.2 -4.7,5.9 -8.2,5.9c-0.9,-0 -1.9,-0.1 -2.8,-0.2l0,7.3c1,0.1 2.1,0.1 3.3,0.1c5.3,-0 10.2,-1.3 13.4,-4.2l0,-18.9c-5.8,-5.3 -16.3,-5.1 -16.3,-10.9" style="fill:#fff;fill-rule:nonzero;"/><path d="M27.2,13.2l1.7,-0c2.7,-0 3.9,1.4 3.9,3.1c0,2.7 -1.7,4.6 -4.9,4.6l-2.3,-0l1.6,-7.7m-0.3,6.7l1.1,-0c2.2,-0 3.5,-1.4 3.5,-3.5c0,-1.3 -0.6,-2.3 -2.8,-2.3l-0.6,-0l-1.2,5.8Z" style="fill:#ee3224;fill-rule:nonzero;"/><path d="M34.7,15.4c0.5,-0.2 1.2,-0.3 1.6,-0.3c1.1,0 2.2,0.4 2.2,1.8c0,0.3 0,0.6 -0.1,0.9c-0.2,1 -0.4,2.1 -0.6,3.1l-1,0c0.1,-0.3 0.1,-0.6 0.2,-0.9c-0.4,0.7 -1.1,1.1 -1.8,1.1c-0.9,0 -1.8,-0.5 -1.8,-1.6c0,-1.6 1.4,-2 3.3,-2l0.7,0c0,-0.1 0.1,-0.2 0.1,-0.4c0,-0.8 -0.5,-1.1 -1.3,-1.1c-0.6,0 -1.3,0.2 -1.7,0.5l0.2,-1.1m2.5,2.8l-0.8,0c-0.8,0 -2,0.2 -2,1.2c-0,0.5 0.4,0.8 0.9,0.8c1.1,0 1.8,-1.1 1.9,-2Z" style="fill:#ee3224;fill-rule:nonzero;"/><path d="M40,15.3l1.3,0l0.3,-1.3l1.1,-0.4l-0.4,1.7l1.5,0l-0.2,0.8l-1.6,0l-0.5,2.4c-0.1,0.3 -0.2,0.9 -0.2,1.1c0,0.4 0.2,0.6 0.7,0.6c0.2,0 0.5,-0.1 0.7,-0.1l-0.2,0.9l-0.7,0c-1,0 -1.3,-0.6 -1.3,-1.2c0,-0.4 0.1,-1 0.2,-1.3l0.5,-2.3l-1.2,0l0,-0.9" style="fill:#ee3224;fill-rule:nonzero;"/><path d="M45.1,15.4c0.5,-0.2 1.2,-0.3 1.6,-0.3c1.1,0 2.2,0.4 2.2,1.8c0,0.3 0,0.6 -0.1,0.9c-0.2,1 -0.4,2.1 -0.6,3.1l-1,0c0.1,-0.3 0.1,-0.6 0.2,-0.9c-0.4,0.7 -1.1,1.1 -1.8,1.1c-0.9,0 -1.8,-0.5 -1.8,-1.6c0,-1.6 1.4,-2 3.3,-2l0.7,0c0,-0.1 0.1,-0.2 0.1,-0.4c0,-0.8 -0.5,-1.1 -1.3,-1.1c-0.6,0 -1.3,0.2 -1.7,0.5l0.2,-1.1m2.5,2.8l-0.8,0c-0.8,0 -2,0.2 -2,1.2c-0,0.5 0.4,0.8 0.9,0.8c1.2,0 1.8,-1.1 1.9,-2Z" style="fill:#ee3224;fill-rule:nonzero;"/><path d="M57.4,13.2l1.1,-0l1.7,7.7l-1.2,-0l-0.4,-1.9l-3.8,-0l-1.2,1.9l-1.2,-0l5,-7.7m0.3,1.2l-2.3,3.7l3,0l-0.7,-3.7Z" style="fill:#ee3224;fill-rule:nonzero;"/><path d="M62,16.1c0,-0.2 0.1,-0.5 0.2,-0.9l1,0l-0.2,1c0.3,-0.5 0.9,-1 1.9,-1c0.1,-0 0.3,-0 0.5,0.1l-0.2,0.9c-0.2,-0.1 -0.4,-0.1 -0.4,-0.1c-1.3,-0 -1.9,1.4 -2,2.1l-0.6,2.8l-1,-0l0.8,-4.9" style="fill:#ee3224;fill-rule:nonzero;"/><path d="M69.8,16.3c-0.4,-0.2 -0.7,-0.3 -1,-0.3c-1.3,0 -2.2,1.2 -2.2,2.5c0,1 0.5,1.7 1.5,1.7c0.4,0 0.8,-0.1 1.1,-0.3l-0.2,1c-0.3,0.1 -0.7,0.1 -1,0.1c-1.5,0 -2.5,-0.8 -2.5,-2.3c0,-1.9 1.1,-3.5 3.1,-3.5c0.6,0 1,0.1 1.5,0.2l-0.3,0.9" style="fill:#ee3224;fill-rule:nonzero;"/><path d="M72,12.6l1,0l-0.7,3.4c0.4,-0.6 1.1,-0.8 1.8,-0.8c1.1,0 1.9,0.6 1.9,1.8c0,0.3 -0.1,0.7 -0.1,1l-0.6,3l-1,0l0.7,-3.4c0,-0.2 0.1,-0.4 0.1,-0.5c0,-0.6 -0.4,-1 -1,-1c-1.3,0 -1.9,1.4 -2,2.1l-0.6,2.8l-1,0l1.5,-8.4" style="fill:#ee3224;fill-rule:nonzero;"/><path d="M78.3,15.3l1,0l-1.2,5.6l-1,-0l1.2,-5.6m1.3,-1.3l-1.2,0l0.2,-1.2l1.2,0l-0.2,1.2Z" style="fill:#ee3224;fill-rule:nonzero;"/><path d="M80.5,15.3l1.1,0l0.5,4.5l0.1,0l2.5,-4.5l1.1,0l-3.2,5.6l-1.2,-0l-0.9,-5.6" style="fill:#ee3224;fill-rule:nonzero;"/><path d="M86.9,15.3l1,0l-1.2,5.6l-1,-0l1.2,-5.6m1.3,-1.3l-1.2,0l0.2,-1.2l1.2,0l-0.2,1.2Z" style="fill:#ee3224;fill-rule:nonzero;"/><path d="M89.7,16.1c0,-0.2 0.1,-0.5 0.2,-0.9l1,0l-0.2,0.9c0.3,-0.5 0.9,-1 1.9,-1c1.1,0 1.9,0.6 1.9,1.8c0,0.3 -0.1,0.7 -0.1,1l-0.6,3l-1,0l0.7,-3.4c0,-0.2 0.1,-0.4 0.1,-0.5c0,-0.6 -0.4,-1 -1,-1c-1.3,0 -1.9,1.4 -2,2.1l-0.6,2.8l-1,0l0.7,-4.8" style="fill:#ee3224;fill-rule:nonzero;"/><path d="M101.5,15.3l-1.3,6c-0.2,1.1 -1.3,2 -3,2c-0.4,0 -1.3,-0.1 -1.9,-0.4l0.2,-0.9c0.5,0.3 1.2,0.5 1.8,0.5c1.2,0 1.7,-0.8 2,-1.6l0.1,-0.6c-0.3,0.4 -0.8,0.6 -1.7,0.6c-1,0 -2.1,-0.8 -2.1,-2.2c0,-2.1 1.2,-3.5 2.8,-3.5c0.8,0 1.5,0.3 1.8,1.1l0.2,-1l1.1,0m-3.5,4.8c0.9,-0 1.9,-0.7 1.9,-2.5c0,-0.8 -0.5,-1.5 -1.4,-1.5c-1.2,-0 -1.8,1.5 -1.8,2.6c0.1,0.6 0.4,1.4 1.3,1.4Z" style="fill:#ee3224;fill-rule:nonzero;"/><path d="M106.5,15.4c0.5,-0.2 1.2,-0.3 1.6,-0.3c1.1,0 2.2,0.4 2.2,1.8c0,0.3 0,0.6 -0.1,0.9c-0.2,1 -0.4,2.1 -0.6,3.1l-1,0c0.1,-0.3 0.1,-0.6 0.2,-0.9c-0.4,0.7 -1.1,1.1 -1.8,1.1c-0.9,0 -1.8,-0.5 -1.8,-1.6c0,-1.6 1.4,-2 3.3,-2l0.7,0c0,-0.1 0.1,-0.2 0.1,-0.4c0,-0.8 -0.5,-1.1 -1.3,-1.1c-0.6,0 -1.3,0.2 -1.7,0.5l0.2,-1.1m2.5,2.8l-0.8,0c-0.8,0 -2,0.2 -2,1.2c-0,0.5 0.4,0.8 0.9,0.8c1.1,0 1.8,-1.1 1.9,-2Z" style="fill:#ee3224;fill-rule:nonzero;"/><path d="M112.4,16.1c0,-0.2 0.1,-0.5 0.2,-0.9l1,0l-0.2,0.9c0.3,-0.5 0.9,-1 1.9,-1c1.1,0 1.9,0.6 1.9,1.8c0,0.3 -0.1,0.7 -0.1,1l-0.6,3l-1,0l0.7,-3.4c0,-0.2 0.1,-0.4 0.1,-0.5c0,-0.6 -0.4,-1 -1,-1c-1.3,0 -1.9,1.4 -2,2.1l-0.6,2.8l-1,0l0.7,-4.8" style="fill:#ee3224;fill-rule:nonzero;"/><path d="M123.4,19c-0.1,0.6 -0.2,1.2 -0.3,1.9l-1,0c0.1,-0.3 0.1,-0.6 0.2,-0.9c-0.4,0.7 -1.1,1 -1.9,1c-1.4,0 -2.1,-1.1 -2.1,-2.4c0,-1.8 1,-3.5 2.9,-3.5c0.8,0 1.5,0.3 1.8,1.1l0.7,-3.6l1,0l-1.3,6.4m-2.7,1.2c1.3,-0 1.9,-1.6 1.9,-2.7c-0,-0.8 -0.5,-1.5 -1.4,-1.5c-1.2,-0 -1.9,1.6 -1.9,2.6c0.1,0.9 0.5,1.6 1.4,1.6Z" style="fill:#ee3224;fill-rule:nonzero;"/><path d="M129.6,13.2l1.5,-0l2.2,6.5l1.3,-6.5l1.1,-0l-1.7,7.7l-1.4,-0l-2.2,-6.4l-1.3,6.4l-1.1,-0l1.6,-7.7" style="fill:#ee3224;fill-rule:nonzero;"/><path d="M140.3,20.8c-0.5,0.1 -1.1,0.2 -1.7,0.2c-1.4,0 -2.6,-0.6 -2.6,-2.5c0,-1.6 1.1,-3.3 3.1,-3.3c1.4,0 2.1,0.8 2.1,2.1c0,0.4 0,0.7 -0.1,1l-3.9,0l0,0.4c0,1.2 0.7,1.5 1.7,1.5c0.5,0 1.1,-0.1 1.6,-0.3l-0.2,0.9m-0.1,-3.1l-0,-0.5c-0,-0.7 -0.4,-1.1 -1.2,-1.1c-0.8,0 -1.5,0.7 -1.7,1.6l2.9,0Z" style="fill:#ee3224;fill-rule:nonzero;"/><path d="M142.5,15.3l1.3,0l0.2,-1.3l1.1,-0.4l-0.4,1.7l1.5,0l-0.2,0.8l-1.6,0l-0.5,2.4c-0.1,0.3 -0.2,0.9 -0.2,1.1c0,0.4 0.2,0.6 0.7,0.6c0.2,0 0.5,-0.1 0.7,-0.1l-0.2,0.9c-0.2,0.1 -0.7,0.1 -1,0.1c-1,0 -1.3,-0.6 -1.3,-1.2c0,-0.4 0.1,-1 0.2,-1.3l0.5,-2.3l-1.2,0l0.4,-1" style="fill:#ee3224;fill-rule:nonzero;"/><path d="M146.7,15.3l1.1,0l0.4,4.5l2.4,-4.5l1.2,0l0.4,4.5l2.4,-4.5l1.1,0l-3,5.6l-1.2,-0l-0.5,-4.5l-2.4,4.5l-1.2,-0l-0.7,-5.6" style="fill:#ee3224;fill-rule:nonzero;"/><path d="M158.9,15.2c1.5,-0 2.5,0.9 2.5,2.5c0,1.9 -1.1,3.4 -3.1,3.4c-1.5,-0 -2.6,-0.8 -2.6,-2.5c-0,-1.9 1.1,-3.4 3.2,-3.4m-0.7,5c1.2,-0 2,-1.3 2,-2.6c-0,-0.8 -0.5,-1.6 -1.4,-1.6c-1.4,-0 -2.1,1.5 -2.1,2.6c0.1,0.9 0.6,1.6 1.5,1.6Z" style="fill:#ee3224;fill-rule:nonzero;"/><path d="M163.3,16.1c0,-0.2 0.1,-0.5 0.2,-0.9l1,0l-0.2,0.9c0.3,-0.5 0.9,-1 1.9,-1c0.1,0 0.3,0 0.5,0.1l-0.2,0.9c-0.2,-0.1 -0.4,-0.1 -0.4,-0.1c-1.3,0 -1.9,1.4 -2,2.1l-0.6,2.8l-1,0l0.8,-4.8" style="fill:#ee3224;fill-rule:nonzero;"/><path d="M168.4,12.6l1,0l-1.1,4.9l0.1,0l2.6,-2.2l1.5,0l-3.2,2.5l2.3,3.1l-1.3,-0l-2.1,-2.9l-0.6,2.9l-1,-0l1.8,-8.3" style="fill:#ee3224;fill-rule:nonzero;"/><path d="M177.1,20.8c-0.5,0.1 -1.1,0.2 -1.7,0.2c-1.4,0 -2.6,-0.6 -2.6,-2.5c0,-1.6 1.1,-3.3 3.1,-3.3c1.4,0 2.1,0.8 2.1,2.1c0,0.4 0,0.7 -0.1,1l-3.9,0l0,0.4c0,1.2 0.7,1.5 1.7,1.5c0.5,0 1.1,-0.1 1.6,-0.3l-0.2,0.9m-0.1,-3.1l0,-0.5c0,-0.7 -0.4,-1.1 -1.2,-1.1c-0.8,0 -1.5,0.7 -1.7,1.6l2.9,0Z" style="fill:#ee3224;fill-rule:nonzero;"/><path d="M184.1,19c-0.1,0.6 -0.2,1.2 -0.3,1.9l-1,0c0.1,-0.3 0.1,-0.6 0.2,-0.9c-0.4,0.7 -1.1,1 -1.9,1c-1.4,0 -2.1,-1.1 -2.1,-2.4c0,-1.8 1,-3.5 2.9,-3.5c0.8,0 1.5,0.3 1.8,1.1l0.7,-3.6l1,0l-1.3,6.4m-2.6,1.2c1.3,-0 1.9,-1.6 1.9,-2.7c0,-0.8 -0.5,-1.5 -1.4,-1.5c-1.2,-0 -1.9,1.6 -1.9,2.6c0,0.9 0.4,1.6 1.4,1.6Z" style="fill:#ee3224;fill-rule:nonzero;"/><path d="M193.6,14.4c-0.4,-0.2 -0.8,-0.4 -1.4,-0.4c-0.7,0 -1.5,0.3 -1.5,1.2c0,1.3 2.6,1.3 2.6,3.3c0,1.2 -0.8,2.5 -2.7,2.5c-0.9,0 -1.5,-0.2 -2.1,-0.4l0.4,-1c0.5,0.3 1.1,0.5 1.6,0.5c1.2,0 1.7,-0.7 1.7,-1.4c0,-1.6 -2.6,-1.3 -2.6,-3.4c0,-1.4 1.3,-2.2 2.5,-2.2c0.6,0 1.3,0.1 1.8,0.4l-0.3,0.9" style="fill:#ee3224;fill-rule:nonzero;"/><path d="M198.6,20.8c-0.5,0.1 -1.1,0.2 -1.7,0.2c-1.4,0 -2.6,-0.6 -2.6,-2.5c0,-1.6 1.1,-3.3 3.1,-3.3c1.4,0 2.1,0.8 2.1,2.1c0,0.4 0,0.7 -0.1,1l-3.9,0l0,0.4c0,1.2 0.7,1.5 1.7,1.5c0.5,0 1.1,-0.1 1.6,-0.3l-0.2,0.9m-0.1,-3.1l0,-0.5c0,-0.7 -0.4,-1.1 -1.2,-1.1c-0.8,0 -1.5,0.7 -1.7,1.6l2.9,0Z" style="fill:#ee3224;fill-rule:nonzero;"/><path d="M201.3,16.1c0,-0.2 0.1,-0.5 0.2,-0.9l1,0l-0.2,0.9c0.3,-0.5 0.9,-1 1.9,-1c0.1,0 0.3,0 0.5,0.1l-0.2,0.9c-0.2,-0.1 -0.4,-0.1 -0.4,-0.1c-1.3,0 -1.9,1.4 -2,2.1l-0.6,2.8l-1,0l0.8,-4.8" style="fill:#ee3224;fill-rule:nonzero;"/><path d="M205,15.3l1.1,0l0.6,4.5l2.5,-4.5l1.1,0l-3.2,5.6l-1.2,-0l-0.9,-5.6" style="fill:#ee3224;fill-rule:nonzero;"/><path d="M211.4,15.3l1,0l-1.2,5.6l-1,-0l1.2,-5.6m1.4,-1.3l-1.2,0l0.2,-1.2l1.2,0l-0.2,1.2Z" style="fill:#ee3224;fill-rule:nonzero;"/><path d="M217.7,16.3c-0.4,-0.2 -0.7,-0.3 -1,-0.3c-1.3,0 -2.2,1.2 -2.2,2.5c-0,1 0.5,1.7 1.5,1.7c0.4,0 0.8,-0.1 1.1,-0.3l-0.2,1c-0.3,0.1 -0.7,0.1 -1.1,0.1c-1.5,0 -2.5,-0.8 -2.5,-2.3c-0,-1.9 1.1,-3.5 3.1,-3.5c0.6,0 1,0.1 1.5,0.2l-0.2,0.9" style="fill:#ee3224;fill-rule:nonzero;"/><path d="M222.5,20.8c-0.5,0.1 -1.1,0.2 -1.7,0.2c-1.4,0 -2.6,-0.6 -2.6,-2.5c0,-1.6 1.1,-3.3 3.1,-3.3c1.4,0 2.1,0.8 2.1,2.1c0,0.4 0,0.7 -0.1,1l-3.9,0l0,0.4c0,1.2 0.7,1.5 1.7,1.5c0.5,0 1.1,-0.1 1.6,-0.3l-0.2,0.9m-0.1,-3.1l0,-0.5c0,-0.7 -0.4,-1.1 -1.2,-1.1c-0.8,0 -1.5,0.7 -1.7,1.6l2.9,0Z" style="fill:#ee3224;fill-rule:nonzero;"/><path d="M227.9,16.3c-0.3,-0.1 -0.7,-0.3 -1.1,-0.3c-0.5,0 -1,0.1 -1,0.7c0,1 1.9,1 1.9,2.6c0,1.4 -1.2,1.8 -2.1,1.8c-0.9,0 -1.2,-0.1 -1.6,-0.3l0.2,-0.9c0.4,0.2 0.8,0.3 1.3,0.3c0.6,0 1.2,-0.2 1.2,-0.9c0,-1 -1.9,-1.1 -1.9,-2.5c0,-1.2 1.2,-1.7 2.1,-1.7c0.5,0 1,0.1 1.5,0.3l-0.5,0.9" style="fill:#ee3224;fill-rule:nonzero;"/></g></svg>